<?xml version="1.0" encoding="UTF-8" standalone="no"?>
<!-- Created with Inkscape (http://www.inkscape.org/) -->

<svg
   width="264.03857mm"
   height="55.359413mm"
   viewBox="0 0 264.03858 55.359414"
   version="1.1"
   id="svg1"
   xml:space="preserve"
   inkscape:version="1.4.2 (f4327f4, 2025-05-13)"
   sodipodi:docname="logo test.svg"
   xmlns:inkscape="http://www.inkscape.org/namespaces/inkscape"
   xmlns:sodipodi="http://sodipodi.sourceforge.net/DTD/sodipodi-0.dtd"
   xmlns="http://www.w3.org/2000/svg"
   xmlns:svg="http://www.w3.org/2000/svg"><sodipodi:namedview
     id="namedview1"
     pagecolor="#ffffff"
     bordercolor="#000000"
     borderopacity="0.25"
     inkscape:showpageshadow="2"
     inkscape:pageopacity="0.0"
     inkscape:pagecheckerboard="0"
     inkscape:deskcolor="#d1d1d1"
     inkscape:document-units="mm"
     showgrid="false"
     inkscape:zoom="0.70710678"
     inkscape:cx="252.43712"
     inkscape:cy="-12.020815"
     inkscape:window-width="1920"
     inkscape:window-height="991"
     inkscape:window-x="-9"
     inkscape:window-y="-9"
     inkscape:window-maximized="1"
     inkscape:current-layer="svg1"><inkscape:grid
       id="grid13"
       units="mm"
       originx="-21.500002"
       originy="-122.14059"
       spacingx="0.99999998"
       spacingy="1"
       empcolor="#0099e5"
       empopacity="0.30196078"
       color="#0099e5"
       opacity="0.14901961"
       empspacing="5"
       enabled="true"
       visible="false" /></sodipodi:namedview><defs
     id="defs1" /><path
     style="display:inline;fill:#61b158;fill-opacity:1;stroke-width:0.4;stroke-linecap:round;paint-order:markers fill stroke"
     d="M 81.000004,27.859 60.5,0.359 h 8.500004 l 20.5,27.5 z"
     id="path11-4-7"
     sodipodi:nodetypes="ccccc" /><path
     style="fill:#499a54;fill-opacity:1;stroke-width:0.4;stroke-linecap:round;paint-order:markers fill stroke"
     d="M 52.5,55.359414 73.000004,27.85941 h 8 L 60.5,55.359414 Z"
     id="path11-2-4"
     sodipodi:nodetypes="ccccc" /><path
     style="display:inline;fill:#36884e;fill-opacity:1;stroke-width:0.4;stroke-linecap:round;paint-order:markers fill stroke"
     d="M 81.000004,27.85941 60.5,55.359414 h 8.500004 l 20.5,-27.500004 z"
     id="path11-4"
     sodipodi:nodetypes="ccccc" /><path
     style="fill:#164a5d;fill-opacity:1;stroke-width:0.4;stroke-linecap:round;paint-order:markers fill stroke"
     d="m 15.5,55.359414 8.3,-12.04803 6.964955,0.048 -11.264955,12 z"
     id="path10"
     sodipodi:nodetypes="ccccc" /><path
     style="fill:#0d2644;fill-opacity:1;stroke-width:0.4;stroke-linecap:round;paint-order:markers fill stroke"
     d="M 38,0 H 1.321345 l 14.552003,26.30003 7.95229,-11.38309 -1.404795,-2.73755 h 7.359264 z"
     id="path6"
     sodipodi:nodetypes="ccccccc" /><path
     id="path11"
     style="fill:#499a54;fill-opacity:1;stroke-width:0.4;stroke-linecap:round;paint-order:markers fill stroke"
     d="M 52.5,55.359414 73.000004,27.85941 h 8 L 60.5,55.359414 Z m 0,-55.000004 20.499994,27.5 h 8.00001 L 60.5,0.35941 Z" /><path
     style="display:inline;fill:#2a6872;fill-opacity:1;stroke-width:0.4;stroke-linecap:round;paint-order:markers fill stroke"
     d="M 0,55.359414 H 15.5 L 41.479442,18.35332 H 51.37888 L 38,0.01473 Z"
     id="path7"
     sodipodi:nodetypes="cccccc" /><path
     style="display:inline;fill:#2a6872;fill-opacity:1;stroke-width:0.4;stroke-linecap:round;paint-order:markers fill stroke"
     d="m 19.5,55.359414 h 16 L 50.971356,33.85941 h 14.278648 l 4.5,-6 -4.5,-6 H 43.432729 Z"
     id="path8"
     sodipodi:nodetypes="cccccccc" /><path
     style="fill:#1e7a4e;fill-opacity:1;stroke-width:0.4;stroke-linecap:round;paint-order:markers fill stroke"
     d="m 47.5,6.85941 5,-6.5 7.625287,10.22492 -5.000287,6.52508 z"
     id="path12"
     sodipodi:nodetypes="ccccc" /><path
     style="fill:#1e7a4e;fill-opacity:1;stroke-width:0.4;stroke-linecap:round;paint-order:markers fill stroke"
     d="m 52.5,55.359414 7.5,-10.05 -6.5,-7.95 -7.5,10.05 z"
     id="path13"
     sodipodi:nodetypes="ccccc" /><path
     style="font-weight:bold;font-size:28.2061px;line-height:0.4;font-family:Arial;-inkscape-font-specification:'Arial Bold';letter-spacing:0px;fill:#0c2440;stroke-width:1.06607;stroke-linecap:round;paint-order:markers fill stroke"
     d="M 102.92735,26.125156 V 10.394218 H 96.538721 V 7.191202 h 17.109789 v 3.203016 h -6.37395 v 15.730938 z m 30.70952,0 h -4.72906 l -1.87988,-4.300823 h -8.6063 l -1.77707,4.300823 h -4.61157 L 120.419,7.191202 h 4.59687 z m -8.00416,-7.490923 -2.96668,-7.025969 -2.90792,7.025969 z m 9.20844,1.330285 4.22973,-0.361632 q 0.38184,1.872731 1.54208,2.750978 1.17492,0.878246 3.1576,0.878246 2.10018,0 3.1576,-0.774923 1.07212,-0.787839 1.07212,-1.833985 0,-0.6716 -0.45529,-1.136554 -0.44059,-0.477869 -1.55676,-0.826585 -0.7637,-0.232476 -3.48071,-0.826584 -3.49539,-0.762008 -4.90529,-1.87273 -1.98268,-1.562762 -1.98268,-3.810039 0,-1.446523 0.92524,-2.6993151 0.93995,-1.2657077 2.68763,-1.9243923 1.76239,-0.6586846 4.24441,-0.6586846 4.05348,0 6.09491,1.5627609 2.05611,1.5627618 2.15891,4.1716691 l -4.3472,0.167901 q -0.27905,-1.459439 -1.2043,-2.092293 -0.91056,-0.645769 -2.74638,-0.645769 -1.89456,0 -2.96667,0.684516 -0.69027,0.439122 -0.69027,1.175299 0,0.6716 0.64621,1.149469 0.82244,0.607023 3.99473,1.265708 3.17228,0.658684 4.685,1.36903 1.52739,0.697432 2.37922,1.924393 0.8665,1.214046 0.8665,3.009284 0,1.627339 -1.02806,3.048032 -1.02806,1.420692 -2.90793,2.118122 -1.87987,0.684516 -4.685,0.684516 -4.08285,0 -6.27114,-1.653169 -2.18829,-1.666085 -2.61421,-4.843269 z m 21.22203,6.160638 V 7.191202 h 4.3472 v 8.407915 l 8.78254,-8.407915 h 5.84524 l -8.10696,7.374685 8.54756,11.559269 h -5.62494 l -5.91866,-8.885785 -3.52478,3.164269 v 5.721516 z m 21.69199,0 V 7.191202 h 14.75995 v 3.203016 h -10.41275 v 4.481638 h 8.98816 v 3.203015 h -8.98816 v 8.046285 z m 18.46095,0 V 7.3461865 h 4.34721 V 22.935056 h 10.80927 v 3.1901 z m 17.37415,-9.350738 q 0,-2.893047 0.984,-4.856185 0.73432,-1.446523 1.99736,-2.5959928 1.27773,-1.1494688 2.79044,-1.7048304 2.01205,-0.7490918 4.64094,-0.7490918 4.75843,0 7.60762,2.5959918 2.86387,2.5959932 2.86387,7.2197002 0,4.584961 -2.83449,7.180954 -2.83451,2.583077 -7.57825,2.583077 -4.80249,0 -7.637,-2.570162 -2.83449,-2.583077 -2.83449,-7.103461 z m 4.47939,-0.129154 q 0,3.215931 1.68894,4.882015 1.68895,1.653169 4.28847,1.653169 2.59951,0 4.2591,-1.640254 1.67425,-1.653169 1.67425,-4.946591 0,-3.254678 -1.6302,-4.856185 -1.61551,-1.601508 -4.30315,-1.601508 -2.68763,0 -4.33252,1.627338 -1.64489,1.614424 -1.64489,4.882016 z m 22.85222,9.479892 -5.14028,-18.933954 h 4.45001 l 3.24573,13.005792 3.93598,-13.005792 h 5.16965 l 3.77444,13.225354 3.30446,-13.225354 h 4.37659 l -5.2284,18.933954 h -4.61157 l -4.28846,-14.155262 -4.27379,14.155262 z"
     id="text15"
     aria-label="TASKFLOW" /><path
     d="M 96.538731,47.213894 V 32.125612 h 12.638799 v 1.780535 H 98.85187 v 4.621177 h 9.66988 v 1.77025 h -9.66988 v 5.135776 h 10.73106 v 1.780544 z m 16.215819,0 V 32.125612 h 2.37276 l 9.18101,11.846249 V 32.125612 h 2.21775 v 15.088282 h -2.37275 l -9.18101,-11.856553 v 11.856553 z m 25.83799,-5.917987 v -1.770249 l 7.40443,-0.01031 v 5.598931 q -1.70505,1.173307 -3.5174,1.77025 -1.81235,0.586649 -3.7201,0.586649 -2.57545,0 -4.6859,-0.946881 -2.09851,-0.957165 -3.17162,-2.758289 -1.0731,-1.801123 -1.0731,-4.024225 0,-2.202523 1.06119,-4.106569 1.0731,-1.914341 3.07622,-2.840634 2.00313,-0.926292 4.61436,-0.926292 1.89582,0 3.42201,0.535196 1.53812,0.524893 2.40853,1.471774 0.87041,0.946881 1.3235,2.470116 l -2.0866,0.49402 q -0.39347,-1.152719 -0.97771,-1.811418 -0.58425,-0.658699 -1.66928,-1.049795 -1.08503,-0.401399 -2.40853,-0.401399 -1.58581,0 -2.74238,0.421978 -1.15657,0.411685 -1.87197,1.090972 -0.70348,0.679278 -1.09695,1.492362 -0.66771,1.399724 -0.66771,3.036177 0,2.017265 0.79886,3.37583 0.8108,1.358556 2.34892,2.017255 1.53811,0.658699 3.26701,0.658699 1.50234,0 2.93315,-0.49402 1.43081,-0.504323 2.17006,-1.070383 v -2.80976 z m 11.20799,5.917987 V 32.125612 h 2.31314 v 15.088282 z m 6.36709,0 V 32.125612 h 2.37276 l 9.18102,11.846249 V 32.125612 h 2.21774 v 15.088282 h -2.37275 l -9.18102,-11.856553 v 11.856553 z m 17.70625,0 V 32.125612 h 12.6388 v 1.780535 h -10.32566 v 4.621177 h 9.66987 v 1.77025 h -9.66987 v 5.135776 h 10.73105 v 1.780544 z m 16.28734,0 V 32.125612 h 12.6388 v 1.780535 h -10.32566 v 4.621177 h 9.66988 v 1.77025 h -9.66988 v 5.135776 h 10.73106 v 1.780544 z m 16.27544,0 V 32.125612 h 7.75021 q 2.33699,0 3.55317,0.411684 1.21618,0.401391 1.94352,1.430607 0.72732,1.029216 0.72732,2.274563 0,1.605571 -1.20426,2.706837 -1.20427,1.101257 -3.7201,1.399733 0.9181,0.380802 1.39504,0.751319 1.01348,0.80279 1.91966,2.00697 l 3.04047,4.106569 h -2.90931 l -2.31314,-3.139109 q -1.01348,-1.358556 -1.66927,-2.079011 -0.65579,-0.720446 -1.18042,-1.008628 -0.51271,-0.288182 -1.04926,-0.401399 -0.39347,-0.072 -1.28773,-0.072 h -2.68276 v 6.700189 z m 2.31314,-8.42927 h 4.97206 q 1.58581,0 2.48007,-0.277888 0.89425,-0.288182 1.35926,-0.905704 0.46502,-0.627826 0.46502,-1.358566 0,-1.070383 -0.90618,-1.759955 -0.89426,-0.689573 -2.83778,-0.689573 h -5.53245 z m 15.67927,8.42927 V 32.125612 h 2.31314 v 15.088282 z m 6.36708,0 V 32.125612 h 2.37276 l 9.18101,11.846249 V 32.125612 h 2.21775 v 15.088282 h -2.37275 l -9.18102,-11.856553 v 11.856553 z m 25.83799,-5.917987 v -1.770249 l 7.40444,-0.01031 v 5.598931 q -1.70506,1.173307 -3.51741,1.77025 -1.81235,0.586649 -3.7201,0.586649 -2.57545,0 -4.68589,-0.946881 -2.09852,-0.957165 -3.17163,-2.758289 -1.0731,-1.801123 -1.0731,-4.024225 0,-2.202523 1.06118,-4.106569 1.0731,-1.914341 3.07623,-2.840634 2.00314,-0.926292 4.61436,-0.926292 1.89582,0 3.42202,0.535196 1.53811,0.524893 2.40852,1.471774 0.87041,0.946881 1.32349,2.470116 l -2.08659,0.49402 q -0.39346,-1.152719 -0.97772,-1.811418 -0.58424,-0.658699 -1.66928,-1.049795 -1.08502,-0.401399 -2.40852,-0.401399 -1.5858,0 -2.74238,0.421978 -1.15656,0.411685 -1.87197,1.090972 -0.70348,0.679278 -1.09696,1.492362 -0.6677,1.399724 -0.6677,3.036177 0,2.017265 0.79887,3.37583 0.81079,1.358556 2.3489,2.017255 1.53813,0.658699 3.26702,0.658699 1.50235,0 2.93315,-0.49402 1.4308,-0.504323 2.17006,-1.070383 v -2.80976 z"
     id="text16"
     style="font-size:22.6873px;line-height:0.4;font-family:Arial;-inkscape-font-specification:Arial;letter-spacing:0px;fill:#0c2440;stroke-width:1.07184;stroke-linecap:round;paint-order:markers fill stroke"
     aria-label="ENGINEERING" /></svg>
